<svg width="1920" height="296" viewBox="0 0 1920 296" fill="none" xmlns="http://www.w3.org/2000/svg">
<g clip-path="url(#clip0_401_609)">
<rect width="1920" height="296" fill="#0B1B2B"/>
<g filter="url(#filter0_f_401_609)">
<circle cx="-12" cy="22" r="118" fill="#14589C"/>
</g>
<g filter="url(#filter1_f_401_609)">
<circle cx="1835.07" cy="42.9365" r="77.6256" transform="rotate(15 1835.07 42.9365)" fill="#14589C"/>
</g>
<rect x="212" y="125" width="69" height="3" rx="1.5" fill="#1562AF" fill-opacity="0.14"/>
<rect x="99" y="125" width="106" height="3" rx="1.5" fill="#1562AF" fill-opacity="0.14"/>
<rect y="125" width="92" height="3" rx="1.5" fill="#1562AF" fill-opacity="0.14"/>
<rect x="287" y="125" width="77" height="3" rx="1.5" fill="#1562AF" fill-opacity="0.34"/>
<rect x="328" y="136" width="36" height="3" rx="1.5" fill="#1562AF" fill-opacity="0.14"/>
<rect x="184" y="136" width="137" height="3" rx="1.5" fill="#1562AF" fill-opacity="0.14"/>
<rect x="72" y="136" width="105" height="3" rx="1.5" fill="#1562AF" fill-opacity="0.34"/>
<rect y="136" width="65" height="3" rx="1.5" fill="#1562AF" fill-opacity="0.14"/>
<rect y="70" width="144" height="3" rx="1.5" fill="#1562AF" fill-opacity="0.14"/>
<rect x="151" y="70" width="136" height="3" rx="1.5" fill="#1562AF" fill-opacity="0.34"/>
<rect width="46" height="3" rx="1.5" transform="matrix(-1 0 0 1 340 70)" fill="#1562AF" fill-opacity="0.14"/>
<rect x="122" y="81" width="111" height="3" rx="1.5" fill="#1562AF" fill-opacity="0.14"/>
<rect x="122" y="222" width="111" height="3" rx="1.5" fill="#1562AF" fill-opacity="0.14"/>
<rect y="81" width="115" height="3" rx="1.5" fill="#1562AF" fill-opacity="0.34"/>
<rect y="222" width="115" height="3" rx="1.5" fill="#1562AF" fill-opacity="0.34"/>
<rect x="275" y="81" width="28" height="3" rx="1.5" fill="#1562AF" fill-opacity="0.34"/>
<rect x="240" y="81" width="28" height="3" rx="1.5" fill="#1562AF" fill-opacity="0.14"/>
<rect x="240" y="222" width="37" height="3" rx="1.5" fill="#1562AF" fill-opacity="0.14"/>
<rect x="310" y="81" width="83" height="3" rx="1.5" fill="#1562AF" fill-opacity="0.14"/>
<rect x="284" y="92" width="89" height="3" rx="1.5" fill="#1562AF" fill-opacity="0.14"/>
<rect x="284" y="233" width="19" height="3" rx="1.5" fill="#1562AF" fill-opacity="0.14"/>
<rect x="134" y="92" width="143" height="3" rx="1.5" fill="#1562AF" fill-opacity="0.34"/>
<rect x="134" y="233" width="143" height="3" rx="1.5" fill="#1562AF" fill-opacity="0.34"/>
<rect x="95" y="92" width="32" height="3" rx="1.5" fill="#1562AF" fill-opacity="0.14"/>
<rect x="95" y="233" width="32" height="3" rx="1.5" fill="#1562AF" fill-opacity="0.14"/>
<rect y="92" width="88" height="3" rx="1.5" fill="#1562AF" fill-opacity="0.14"/>
<rect y="233" width="88" height="3" rx="1.5" fill="#1562AF" fill-opacity="0.14"/>
<rect x="349" y="103" width="60" height="3" rx="1.5" fill="#1562AF" fill-opacity="0.34"/>
<rect x="201" y="103" width="142" height="3" rx="1.5" fill="#1562AF" fill-opacity="0.14"/>
<rect x="201" y="244" width="51" height="3" rx="1.5" fill="#1562AF" fill-opacity="0.14"/>
<rect x="259" y="244" width="62" height="3" rx="1.5" fill="#1562AF" fill-opacity="0.34"/>
<rect x="163" y="103" width="31" height="3" rx="1.5" fill="#1562AF" fill-opacity="0.14"/>
<rect x="106" y="103" width="51" height="3" rx="1.5" fill="#1562AF" fill-opacity="0.14"/>
<rect x="106" y="244" width="88" height="3" rx="1.5" fill="#1562AF" fill-opacity="0.14"/>
<rect x="32" y="103" width="67" height="3" rx="1.5" fill="#1562AF" fill-opacity="0.34"/>
<rect y="244" width="99" height="3" rx="1.5" fill="#1562AF" fill-opacity="0.34"/>
<rect y="103" width="25" height="3" rx="1.5" fill="#1562AF" fill-opacity="0.14"/>
<rect y="114" width="72" height="3" rx="1.5" fill="#1562AF" fill-opacity="0.34"/>
<rect y="255" width="72" height="3" rx="1.5" fill="#1562AF" fill-opacity="0.14"/>
<rect x="79" y="114" width="97" height="3" rx="1.5" fill="#1562AF" fill-opacity="0.14"/>
<rect x="79" y="255" width="55" height="3" rx="1.5" fill="#1562AF" fill-opacity="0.34"/>
<rect width="61" height="3" rx="1.5" transform="matrix(-1 0 0 1 1730 197)" fill="#1562AF" fill-opacity="0.14"/>
<rect width="94" height="3" rx="1.5" transform="matrix(-1 0 0 1 1830 197)" fill="#1562AF" fill-opacity="0.34"/>
<rect width="82" height="3" rx="1.5" transform="matrix(-1 0 0 1 1918 197)" fill="#1562AF" fill-opacity="0.14"/>
<rect width="68" height="3" rx="1.5" transform="matrix(-1 0 0 1 1663 197)" fill="#1562AF" fill-opacity="0.34"/>
<rect width="42" height="3" rx="1.5" transform="matrix(-1 0 0 1 1589 208)" fill="#1562AF" fill-opacity="0.34"/>
<rect width="32" height="3" rx="1.5" transform="matrix(-1 0 0 1 1627 208)" fill="#1562AF" fill-opacity="0.14"/>
<rect width="122" height="3" rx="1.5" transform="matrix(-1 0 0 1 1755 208)" fill="#1562AF" fill-opacity="0.14"/>
<rect width="93" height="3" rx="1.5" transform="matrix(-1 0 0 1 1854 208)" fill="#1562AF" fill-opacity="0.14"/>
<rect width="58" height="3" rx="1.5" transform="matrix(-1 0 0 1 1918 208)" fill="#1562AF" fill-opacity="0.34"/>
<rect width="118" height="3" rx="1.5" transform="matrix(-1 0 0 1 1918 30)" fill="#1562AF" fill-opacity="0.14"/>
<rect width="128" height="3" rx="1.5" transform="matrix(-1 0 0 1 1918 219)" fill="#1562AF" fill-opacity="0.14"/>
<rect width="112" height="3" rx="1.5" transform="matrix(-1 0 0 1 1794 30)" fill="#1562AF" fill-opacity="0.34"/>
<rect width="121" height="3" rx="1.5" transform="matrix(-1 0 0 1 1737 219)" fill="#1562AF" fill-opacity="0.14"/>
<rect x="1638" y="30" width="38" height="3" rx="1.5" fill="#1562AF" fill-opacity="0.14"/>
<rect x="1743" y="219" width="41" height="3" rx="1.5" fill="#1562AF" fill-opacity="0.34"/>
<rect width="92" height="3" rx="1.5" transform="matrix(-1 0 0 1 1818 41)" fill="#1562AF" fill-opacity="0.14"/>
<rect width="99" height="3" rx="1.5" transform="matrix(-1 0 0 1 1810 230)" fill="#1562AF" fill-opacity="0.14"/>
<rect width="94" height="3" rx="1.5" transform="matrix(-1 0 0 1 1918 41)" fill="#1562AF" fill-opacity="0.34"/>
<rect width="102" height="3" rx="1.5" transform="matrix(-1 0 0 1 1918 230)" fill="#1562AF" fill-opacity="0.34"/>
<rect width="23" height="3" rx="1.5" transform="matrix(-1 0 0 1 1692 41)" fill="#1562AF" fill-opacity="0.34"/>
<rect width="23" height="3" rx="1.5" transform="matrix(-1 0 0 1 1721 41)" fill="#1562AF" fill-opacity="0.14"/>
<rect width="62" height="3" rx="1.5" transform="matrix(-1 0 0 1 1705 230)" fill="#1562AF" fill-opacity="0.34"/>
<rect width="68" height="3" rx="1.5" transform="matrix(-1 0 0 1 1663 41)" fill="#1562AF" fill-opacity="0.14"/>
<rect width="79" height="3" rx="1.5" transform="matrix(-1 0 0 1 1666 84)" fill="#1562AF" fill-opacity="0.14"/>
<rect width="79" height="3" rx="1.5" transform="matrix(-1 0 0 1 1666 241)" fill="#1562AF" fill-opacity="0.34"/>
<rect width="127" height="3" rx="1.5" transform="matrix(-1 0 0 1 1799 84)" fill="#1562AF" fill-opacity="0.14"/>
<rect width="127" height="3" rx="1.5" transform="matrix(-1 0 0 1 1799 241)" fill="#1562AF" fill-opacity="0.14"/>
<rect width="29" height="3" rx="1.5" transform="matrix(-1 0 0 1 1834 84)" fill="#1562AF" fill-opacity="0.34"/>
<rect width="29" height="3" rx="1.5" transform="matrix(-1 0 0 1 1834 241)" fill="#1562AF" fill-opacity="0.34"/>
<rect width="78" height="3" rx="1.5" transform="matrix(-1 0 0 1 1918 84)" fill="#1562AF" fill-opacity="0.14"/>
<rect width="78" height="3" rx="1.5" transform="matrix(-1 0 0 1 1918 241)" fill="#1562AF" fill-opacity="0.14"/>
<rect width="53" height="3" rx="1.5" transform="matrix(-1 0 0 1 1608 95)" fill="#1562AF" fill-opacity="0.34"/>
<rect width="53" height="3" rx="1.5" transform="matrix(-1 0 0 1 1608 252)" fill="#1562AF" fill-opacity="0.14"/>
<rect width="126" height="3" rx="1.5" transform="matrix(-1 0 0 1 1740 95)" fill="#1562AF" fill-opacity="0.14"/>
<rect width="126" height="3" rx="1.5" transform="matrix(-1 0 0 1 1740 252)" fill="#1562AF" fill-opacity="0.14"/>
<rect width="27" height="3" rx="1.5" transform="matrix(-1 0 0 1 1773 95)" fill="#1562AF" fill-opacity="0.34"/>
<rect width="45" height="3" rx="1.5" transform="matrix(-1 0 0 1 1824 95)" fill="#1562AF" fill-opacity="0.14"/>
<rect width="78" height="3" rx="1.5" transform="matrix(-1 0 0 1 1824 252)" fill="#1562AF" fill-opacity="0.34"/>
<rect width="60" height="3" rx="1.5" transform="matrix(-1 0 0 1 1890 95)" fill="#1562AF" fill-opacity="0.14"/>
<rect width="88" height="3" rx="1.5" transform="matrix(-1 0 0 1 1918 252)" fill="#1562AF" fill-opacity="0.14"/>
<rect width="22" height="3" rx="1.5" transform="matrix(-1 0 0 1 1918 95)" fill="#1562AF" fill-opacity="0.14"/>
<rect width="64" height="3" rx="1.5" transform="matrix(-1 0 0 1 1918 106)" fill="#1562AF" fill-opacity="0.34"/>
<rect width="64" height="3" rx="1.5" transform="matrix(-1 0 0 1 1918 263)" fill="#1562AF" fill-opacity="0.34"/>
<rect width="86" height="3" rx="1.5" transform="matrix(-1 0 0 1 1848 106)" fill="#1562AF" fill-opacity="0.14"/>
<rect width="154" height="3" rx="1.5" transform="matrix(-1 0 0 1 1848 263)" fill="#1562AF" fill-opacity="0.14"/>
<g filter="url(#filter2_f_401_609)">
<rect x="512" y="235" width="891" height="52" fill="#14589C"/>
</g>
<g clip-path="url(#clip1_401_609)">
<path d="M938.763 70.2377C938.079 69.5541 938.079 68.4462 938.762 67.7625C938.762 67.7625 938.762 67.7624 938.763 67.7623C938.763 67.7623 938.763 67.7623 938.763 67.7623C939.446 67.0794 940.554 67.0795 941.238 67.7626L956.235 82.7646L956.235 82.7647C956.919 83.4483 956.919 84.5516 956.235 85.2353L956.235 85.2353L941.238 100.235C940.554 100.919 939.446 100.919 938.763 100.235C938.079 99.5516 938.079 98.4483 938.763 97.7646L938.763 97.7646L951.991 84.5302L952.521 83.9999L951.991 83.4697L938.763 70.2377C938.763 70.2377 938.763 70.2377 938.763 70.2377ZM980 97.25C980.969 97.25 981.75 98.0314 981.75 99C981.75 99.9686 980.969 100.75 980 100.75H957.5C956.531 100.75 955.75 99.9686 955.75 99C955.75 98.0314 956.531 97.25 957.5 97.25H980Z" stroke="#3294F8" stroke-width="1.5"/>
</g>
<path d="M900.484 142.27V149.758C899.375 150.773 897.129 151.281 893.746 151.281C893.082 151.281 892.496 151.254 891.988 151.199C891.488 151.145 891.027 151.074 890.605 150.988C890.191 150.902 889.836 150.758 889.539 150.555C889.242 150.344 888.98 150.133 888.754 149.922C888.527 149.711 888.344 149.406 888.203 149.008C888.062 148.602 887.945 148.211 887.852 147.836C887.766 147.461 887.699 146.957 887.652 146.324C887.613 145.691 887.586 145.086 887.57 144.508C887.555 143.93 887.547 143.188 887.547 142.281C887.547 141.508 887.551 140.848 887.559 140.301C887.574 139.754 887.602 139.195 887.641 138.625C887.688 138.055 887.746 137.582 887.816 137.207C887.895 136.824 887.996 136.441 888.121 136.059C888.254 135.668 888.406 135.355 888.578 135.121C888.75 134.879 888.965 134.641 889.223 134.406C889.48 134.172 889.766 133.992 890.078 133.867C890.398 133.742 890.77 133.629 891.191 133.527C891.613 133.426 892.074 133.359 892.574 133.328C893.074 133.289 893.641 133.27 894.273 133.27C894.312 133.27 894.371 133.27 894.449 133.27C894.996 133.27 895.41 133.273 895.691 133.281C895.973 133.289 896.352 133.32 896.828 133.375C897.312 133.422 897.684 133.5 897.941 133.609C898.199 133.711 898.496 133.867 898.832 134.078C899.168 134.281 899.418 134.535 899.582 134.84C899.746 135.137 899.891 135.516 900.016 135.977C900.141 136.438 900.203 136.969 900.203 137.57C900.203 137.711 900.195 137.906 900.18 138.156L898.082 138.555L897.953 136.246C897.938 135.746 897.652 135.426 897.098 135.285C896.543 135.137 895.492 135.062 893.945 135.062C892.891 135.062 892.094 135.129 891.555 135.262C891.016 135.387 890.641 135.582 890.43 135.848C890.219 136.113 890.09 136.508 890.043 137.031C889.973 138.633 889.938 140.273 889.938 141.953C889.938 143.641 889.973 145.281 890.043 146.875C890.082 147.719 890.148 148.266 890.242 148.516C890.391 148.898 890.73 149.156 891.262 149.289C891.762 149.414 892.633 149.477 893.875 149.477C896.547 149.477 898.027 149.297 898.316 148.938C898.309 148.133 898.305 146.5 898.305 144.039H895.352L895.152 142.27H900.484ZM906.426 151H904.047V133.539H906.426V151ZM919.891 135.344H915.332V151H912.953V135.344H908.488V133.539H919.891V135.344ZM934.445 151H932.066V142.984H924.262V151H921.883V133.539H924.262V141.133H932.066V133.539H934.445V151ZM951.355 133.539V144.473C951.355 145.41 951.312 146.215 951.227 146.887C951.148 147.559 951.004 148.156 950.793 148.68C950.582 149.195 950.316 149.617 949.996 149.945C949.684 150.266 949.27 150.531 948.754 150.742C948.246 150.945 947.676 151.086 947.043 151.164C946.41 151.242 945.645 151.281 944.746 151.281C943.879 151.281 943.141 151.246 942.531 151.176C941.922 151.105 941.359 150.977 940.844 150.789C940.328 150.594 939.91 150.34 939.59 150.027C939.277 149.707 939.008 149.293 938.781 148.785C938.555 148.27 938.395 147.664 938.301 146.969C938.215 146.273 938.172 145.441 938.172 144.473V133.539H940.551V144.777C940.551 145.426 940.551 145.895 940.551 146.184C940.559 146.473 940.582 146.828 940.621 147.25C940.66 147.664 940.711 147.949 940.773 148.105C940.836 148.254 940.938 148.441 941.078 148.668C941.227 148.895 941.391 149.039 941.57 149.102C941.758 149.156 942.012 149.227 942.332 149.312C942.652 149.398 942.996 149.449 943.363 149.465C943.738 149.473 944.203 149.477 944.758 149.477C945.414 149.477 945.961 149.457 946.398 149.418C946.844 149.379 947.23 149.301 947.559 149.184C947.887 149.066 948.137 148.934 948.309 148.785C948.488 148.629 948.629 148.402 948.73 148.105C948.84 147.809 948.91 147.5 948.941 147.18C948.973 146.859 948.988 146.434 948.988 145.902L948.977 133.539H951.355ZM967.398 145.973C967.391 146.465 967.371 146.898 967.34 147.273C967.316 147.641 967.273 147.988 967.211 148.316C967.148 148.645 967.082 148.922 967.012 149.148C966.941 149.375 966.828 149.59 966.672 149.793C966.523 149.988 966.379 150.148 966.238 150.273C966.098 150.391 965.895 150.5 965.629 150.602C965.371 150.695 965.121 150.766 964.879 150.812C964.637 150.859 964.312 150.898 963.906 150.93C963.508 150.961 963.121 150.98 962.746 150.988C962.379 150.996 961.914 151 961.352 151H955.094V133.539H961.727C962.609 133.539 963.34 133.586 963.918 133.68C964.504 133.766 965.02 133.926 965.465 134.16C965.918 134.395 966.246 134.727 966.449 135.156C966.652 135.586 966.758 136.133 966.766 136.797L966.777 138.062C966.777 138.594 966.758 139.027 966.719 139.363C966.68 139.699 966.609 140.004 966.508 140.277C966.414 140.551 966.27 140.766 966.074 140.922C965.879 141.078 965.641 141.211 965.359 141.32C965.086 141.422 964.73 141.512 964.293 141.59C964.824 141.645 965.281 141.762 965.664 141.941C966.047 142.121 966.348 142.336 966.566 142.586C966.793 142.836 966.969 143.152 967.094 143.535C967.219 143.918 967.301 144.293 967.34 144.66C967.379 145.027 967.398 145.465 967.398 145.973ZM964.457 137.559C964.457 137.543 964.457 137.52 964.457 137.488C964.457 137.16 964.457 136.93 964.457 136.797C964.457 136.656 964.434 136.488 964.387 136.293C964.348 136.09 964.305 135.957 964.258 135.895C964.219 135.832 964.121 135.75 963.965 135.648C963.816 135.539 963.668 135.477 963.52 135.461C963.371 135.438 963.137 135.41 962.816 135.379C962.504 135.34 962.191 135.32 961.879 135.32C961.566 135.32 961.141 135.32 960.602 135.32H957.449V140.922H959.805C960.828 140.922 961.656 140.895 962.289 140.84C962.922 140.777 963.391 140.676 963.695 140.535C964.008 140.387 964.211 140.23 964.305 140.066C964.406 139.902 964.457 139.684 964.457 139.41V137.559ZM965.078 145.41C965.062 144.48 965.027 143.895 964.973 143.652C964.863 143.223 964.594 142.93 964.164 142.773C963.633 142.57 962.445 142.465 960.602 142.457C960.477 142.457 960.34 142.457 960.191 142.457H957.449V149.23H961.926C962.832 149.23 963.516 149.156 963.977 149.008C964.438 148.852 964.742 148.621 964.891 148.316C965.039 148.012 965.109 147.562 965.102 146.969L965.078 145.41ZM987.555 145.973C987.547 146.465 987.527 146.898 987.496 147.273C987.473 147.641 987.43 147.988 987.367 148.316C987.305 148.645 987.238 148.922 987.168 149.148C987.098 149.375 986.984 149.59 986.828 149.793C986.68 149.988 986.535 150.148 986.395 150.273C986.254 150.391 986.051 150.5 985.785 150.602C985.527 150.695 985.277 150.766 985.035 150.812C984.793 150.859 984.469 150.898 984.062 150.93C983.664 150.961 983.277 150.98 982.902 150.988C982.535 150.996 982.07 151 981.508 151H975.25V133.539H981.883C982.766 133.539 983.496 133.586 984.074 133.68C984.66 133.766 985.176 133.926 985.621 134.16C986.074 134.395 986.402 134.727 986.605 135.156C986.809 135.586 986.914 136.133 986.922 136.797L986.934 138.062C986.934 138.594 986.914 139.027 986.875 139.363C986.836 139.699 986.766 140.004 986.664 140.277C986.57 140.551 986.426 140.766 986.23 140.922C986.035 141.078 985.797 141.211 985.516 141.32C985.242 141.422 984.887 141.512 984.449 141.59C984.98 141.645 985.438 141.762 985.82 141.941C986.203 142.121 986.504 142.336 986.723 142.586C986.949 142.836 987.125 143.152 987.25 143.535C987.375 143.918 987.457 144.293 987.496 144.66C987.535 145.027 987.555 145.465 987.555 145.973ZM984.613 137.559C984.613 137.543 984.613 137.52 984.613 137.488C984.613 137.16 984.613 136.93 984.613 136.797C984.613 136.656 984.59 136.488 984.543 136.293C984.504 136.09 984.461 135.957 984.414 135.895C984.375 135.832 984.277 135.75 984.121 135.648C983.973 135.539 983.824 135.477 983.676 135.461C983.527 135.438 983.293 135.41 982.973 135.379C982.66 135.34 982.348 135.32 982.035 135.32C981.723 135.32 981.297 135.32 980.758 135.32H977.605V140.922H979.961C980.984 140.922 981.812 140.895 982.445 140.84C983.078 140.777 983.547 140.676 983.852 140.535C984.164 140.387 984.367 140.23 984.461 140.066C984.562 139.902 984.613 139.684 984.613 139.41V137.559ZM985.234 145.41C985.219 144.48 985.184 143.895 985.129 143.652C985.02 143.223 984.75 142.93 984.32 142.773C983.789 142.57 982.602 142.465 980.758 142.457C980.633 142.457 980.496 142.457 980.348 142.457H977.605V149.23H982.082C982.988 149.23 983.672 149.156 984.133 149.008C984.594 148.852 984.898 148.621 985.047 148.316C985.195 148.012 985.266 147.562 985.258 146.969L985.234 145.41ZM999.59 151H990.719V133.539H993.098V149.207H999.824L999.59 151ZM1008.81 151.281C1008.13 151.281 1007.53 151.266 1007 151.234C1006.47 151.203 1005.99 151.125 1005.54 151C1005.1 150.883 1004.71 150.773 1004.39 150.672C1004.08 150.57 1003.8 150.379 1003.54 150.098C1003.29 149.809 1003.08 149.562 1002.92 149.359C1002.75 149.148 1002.61 148.805 1002.5 148.328C1002.38 147.844 1002.29 147.434 1002.24 147.098C1002.18 146.754 1002.14 146.227 1002.1 145.516C1002.07 144.805 1002.05 144.195 1002.04 143.688C1002.04 143.18 1002.04 142.445 1002.04 141.484C1002.04 140.328 1002.07 139.367 1002.13 138.602C1002.2 137.836 1002.32 137.125 1002.5 136.469C1002.68 135.812 1002.93 135.297 1003.22 134.922C1003.53 134.547 1003.94 134.227 1004.45 133.961C1004.98 133.688 1005.58 133.504 1006.27 133.41C1006.96 133.309 1007.81 133.258 1008.81 133.258C1009.76 133.258 1010.57 133.305 1011.24 133.398C1011.91 133.492 1012.5 133.66 1013.02 133.902C1013.54 134.137 1013.96 134.434 1014.27 134.793C1014.59 135.145 1014.86 135.609 1015.06 136.188C1015.26 136.766 1015.4 137.414 1015.47 138.133C1015.55 138.844 1015.59 139.711 1015.59 140.734C1015.59 143.625 1015.54 145.527 1015.46 146.441C1015.31 148.004 1014.95 149.121 1014.38 149.793C1013.78 150.512 1012.75 150.965 1011.31 151.152C1010.62 151.238 1009.79 151.281 1008.81 151.281ZM1010.49 135.109C1010.04 135.078 1009.48 135.062 1008.81 135.062C1008.14 135.062 1007.58 135.078 1007.14 135.109C1006.69 135.141 1006.3 135.207 1005.96 135.309C1005.64 135.41 1005.38 135.523 1005.2 135.648C1005.02 135.773 1004.88 135.969 1004.76 136.234C1004.65 136.492 1004.57 136.758 1004.54 137.031C1004.5 137.305 1004.48 137.676 1004.46 138.145C1004.44 139.59 1004.43 141.043 1004.43 142.504C1004.43 144.707 1004.49 146.215 1004.61 147.027C1004.79 148.246 1005.15 148.949 1005.67 149.137C1006.06 149.363 1007.11 149.477 1008.81 149.477C1010.52 149.477 1011.56 149.363 1011.95 149.137C1012.1 149.082 1012.23 148.992 1012.35 148.867C1012.48 148.742 1012.58 148.574 1012.66 148.363C1012.74 148.152 1012.82 147.941 1012.88 147.73C1012.94 147.512 1012.99 147.234 1013.03 146.898C1013.07 146.562 1013.1 146.262 1013.12 145.996C1013.15 145.723 1013.16 145.379 1013.17 144.965C1013.18 144.543 1013.18 144.195 1013.18 143.922C1013.19 143.648 1013.2 143.285 1013.2 142.832C1013.2 141.254 1013.18 139.691 1013.16 138.145C1013.14 137.676 1013.12 137.305 1013.08 137.031C1013.05 136.758 1012.97 136.492 1012.86 136.234C1012.75 135.969 1012.6 135.773 1012.42 135.648C1012.24 135.523 1011.98 135.41 1011.65 135.309C1011.32 135.207 1010.93 135.141 1010.49 135.109ZM1031.62 142.27V149.758C1030.51 150.773 1028.26 151.281 1024.88 151.281C1024.21 151.281 1023.63 151.254 1023.12 151.199C1022.62 151.145 1022.16 151.074 1021.74 150.988C1021.32 150.902 1020.97 150.758 1020.67 150.555C1020.38 150.344 1020.11 150.133 1019.89 149.922C1019.66 149.711 1019.48 149.406 1019.34 149.008C1019.2 148.602 1019.08 148.211 1018.98 147.836C1018.9 147.461 1018.83 146.957 1018.79 146.324C1018.75 145.691 1018.72 145.086 1018.7 144.508C1018.69 143.93 1018.68 143.188 1018.68 142.281C1018.68 141.508 1018.68 140.848 1018.69 140.301C1018.71 139.754 1018.73 139.195 1018.77 138.625C1018.82 138.055 1018.88 137.582 1018.95 137.207C1019.03 136.824 1019.13 136.441 1019.25 136.059C1019.39 135.668 1019.54 135.355 1019.71 135.121C1019.88 134.879 1020.1 134.641 1020.36 134.406C1020.61 134.172 1020.9 133.992 1021.21 133.867C1021.53 133.742 1021.9 133.629 1022.32 133.527C1022.75 133.426 1023.21 133.359 1023.71 133.328C1024.21 133.289 1024.77 133.27 1025.41 133.27C1025.45 133.27 1025.5 133.27 1025.58 133.27C1026.13 133.27 1026.54 133.273 1026.82 133.281C1027.11 133.289 1027.48 133.32 1027.96 133.375C1028.45 133.422 1028.82 133.5 1029.07 133.609C1029.33 133.711 1029.63 133.867 1029.96 134.078C1030.3 134.281 1030.55 134.535 1030.71 134.84C1030.88 135.137 1031.02 135.516 1031.15 135.977C1031.27 136.438 1031.34 136.969 1031.34 137.57C1031.34 137.711 1031.33 137.906 1031.31 138.156L1029.21 138.555L1029.09 136.246C1029.07 135.746 1028.79 135.426 1028.23 135.285C1027.68 135.137 1026.62 135.062 1025.08 135.062C1024.02 135.062 1023.23 135.129 1022.69 135.262C1022.15 135.387 1021.77 135.582 1021.56 135.848C1021.35 136.113 1021.22 136.508 1021.18 137.031C1021.11 138.633 1021.07 140.273 1021.07 141.953C1021.07 143.641 1021.11 145.281 1021.18 146.875C1021.21 147.719 1021.28 148.266 1021.38 148.516C1021.52 148.898 1021.86 149.156 1022.39 149.289C1022.89 149.414 1023.77 149.477 1025.01 149.477C1027.68 149.477 1029.16 149.297 1029.45 148.938C1029.44 148.133 1029.44 146.5 1029.44 144.039H1026.48L1026.29 142.27H1031.62Z" fill="#3294F8"/>
</g>
<defs>
<filter id="filter0_f_401_609" x="-530" y="-496" width="1036" height="1036" filterUnits="userSpaceOnUse" color-interpolation-filters="sRGB">
<feFlood flood-opacity="0" result="BackgroundImageFix"/>
<feBlend mode="normal" in="SourceGraphic" in2="BackgroundImageFix" result="shape"/>
<feGaussianBlur stdDeviation="200" result="effect1_foregroundBlur_401_609"/>
</filter>
<filter id="filter1_f_401_609" x="1389.43" y="-402.708" width="891.29" height="891.29" filterUnits="userSpaceOnUse" color-interpolation-filters="sRGB">
<feFlood flood-opacity="0" result="BackgroundImageFix"/>
<feBlend mode="normal" in="SourceGraphic" in2="BackgroundImageFix" result="shape"/>
<feGaussianBlur stdDeviation="184" result="effect1_foregroundBlur_401_609"/>
</filter>
<filter id="filter2_f_401_609" x="300" y="23" width="1315" height="476" filterUnits="userSpaceOnUse" color-interpolation-filters="sRGB">
<feFlood flood-opacity="0" result="BackgroundImageFix"/>
<feBlend mode="normal" in="SourceGraphic" in2="BackgroundImageFix" result="shape"/>
<feGaussianBlur stdDeviation="106" result="effect1_foregroundBlur_401_609"/>
</filter>
<clipPath id="clip0_401_609">
<rect width="1920" height="296" fill="white"/>
</clipPath>
<clipPath id="clip1_401_609">
<rect width="45" height="40" fill="white" transform="translate(937.5 64)"/>
</clipPath>
</defs>
</svg>
